<?xml version="1.0" encoding="UTF-8" standalone="no"?>
<svg
   xmlns:dc="http://purl.org/dc/elements/1.1/"
   xmlns:cc="http://creativecommons.org/ns#"
   xmlns:rdf="http://www.w3.org/1999/02/22-rdf-syntax-ns#"
   xmlns:svg="http://www.w3.org/2000/svg"
   xmlns="http://www.w3.org/2000/svg"
   xmlns:sodipodi="http://sodipodi.sourceforge.net/DTD/sodipodi-0.dtd"
   xmlns:inkscape="http://www.inkscape.org/namespaces/inkscape"
   width="140mm"
   height="40mm"
   viewBox="0 0 140 40"
   version="1.1"
   id="svg8"
   sodipodi:docname="elanogy-final-logo.svg"
   inkscape:export-filename="D:\my_stuff\elanogy\logo-design\elanogy-full2.png"
   inkscape:export-xdpi="96"
   inkscape:export-ydpi="96"
   inkscape:version="1.0.2 (e86c870879, 2021-01-15)">
  <defs
     id="defs2">
    <inkscape:path-effect
       fuse_tolerance="0"
       vertical_pattern="false"
       prop_units="false"
       tang_offset="0"
       normal_offset="0"
       spacing="0"
       scale_y_rel="false"
       prop_scale="0.010632409"
       copytype="single_stretched"
       pattern="M 0,5 C 0,2.24 2.24,0 5,0 7.76,0 10,2.24 10,5 10,7.76 7.76,10 5,10 2.24,10 0,7.76 0,5 Z"
       is_visible="true"
       id="path-effect4619"
       effect="skeletal"
       lpeversion="0"
       hide_knot="false" />
    <inkscape:path-effect
       fuse_tolerance="0"
       vertical_pattern="false"
       prop_units="false"
       tang_offset="0"
       normal_offset="0"
       spacing="0"
       scale_y_rel="false"
       prop_scale="0.0827726"
       copytype="single_stretched"
       pattern="M 0,5 C 0,2.24 2.24,0 5,0 7.76,0 10,2.24 10,5 10,7.76 7.76,10 5,10 2.24,10 0,7.76 0,5 Z"
       is_visible="true"
       id="path-effect4602"
       effect="skeletal"
       lpeversion="0"
       hide_knot="false" />
    <inkscape:path-effect
       fuse_tolerance="0"
       vertical_pattern="false"
       prop_units="false"
       tang_offset="0"
       normal_offset="0"
       spacing="0"
       scale_y_rel="false"
       prop_scale="0.0827726"
       copytype="single_stretched"
       pattern="M 0,5 C 0,2.24 2.24,0 5,0 7.76,0 10,2.24 10,5 10,7.76 7.76,10 5,10 2.24,10 0,7.76 0,5 Z"
       is_visible="true"
       id="path-effect4592"
       effect="skeletal"
       lpeversion="0"
       hide_knot="false" />
    <inkscape:path-effect
       fuse_tolerance="0"
       vertical_pattern="false"
       prop_units="false"
       tang_offset="0"
       normal_offset="0"
       spacing="0"
       scale_y_rel="false"
       prop_scale="0.0827726"
       copytype="single_stretched"
       pattern="M 0,5 C 0,2.24 2.24,0 5,0 7.76,0 10,2.24 10,5 10,7.76 7.76,10 5,10 2.24,10 0,7.76 0,5 Z"
       is_visible="true"
       id="path-effect4588"
       effect="skeletal"
       lpeversion="0"
       hide_knot="false" />
    <inkscape:path-effect
       fuse_tolerance="0"
       vertical_pattern="false"
       prop_units="false"
       tang_offset="0"
       normal_offset="0"
       spacing="0"
       scale_y_rel="false"
       prop_scale="0.0827726"
       copytype="single_stretched"
       pattern="M 0,5 C 0,2.24 2.24,0 5,0 7.76,0 10,2.24 10,5 10,7.76 7.76,10 5,10 2.24,10 0,7.76 0,5 Z"
       is_visible="true"
       id="path-effect4580"
       effect="skeletal"
       lpeversion="0"
       hide_knot="false" />
    <inkscape:path-effect
       fuse_tolerance="0"
       vertical_pattern="false"
       prop_units="false"
       tang_offset="0"
       normal_offset="0"
       spacing="0"
       scale_y_rel="false"
       prop_scale="0.08277255"
       copytype="single_stretched"
       pattern="M 0,5 C 0,2.24 2.24,0 5,0 7.76,0 10,2.24 10,5 10,7.76 7.76,10 5,10 2.24,10 0,7.76 0,5 Z"
       is_visible="true"
       id="path-effect4574"
       effect="skeletal"
       lpeversion="0"
       hide_knot="false" />
    <inkscape:path-effect
       fuse_tolerance="0"
       vertical_pattern="false"
       prop_units="false"
       tang_offset="0"
       normal_offset="0"
       spacing="0"
       scale_y_rel="false"
       prop_scale="0.117795"
       copytype="single_stretched"
       pattern="M 0,5 C 0,2.24 2.24,0 5,0 7.76,0 10,2.24 10,5 10,7.76 7.76,10 5,10 2.24,10 0,7.76 0,5 Z"
       is_visible="true"
       id="path-effect4172"
       effect="skeletal"
       lpeversion="0"
       hide_knot="false" />
    <inkscape:path-effect
       fuse_tolerance="0"
       vertical_pattern="false"
       prop_units="false"
       tang_offset="0"
       normal_offset="0"
       spacing="0"
       scale_y_rel="false"
       prop_scale="0.16857722"
       copytype="single_stretched"
       pattern="M 0,5 C 0,2.24 2.24,0 5,0 7.76,0 10,2.24 10,5 10,7.76 7.76,10 5,10 2.24,10 0,7.76 0,5 Z"
       is_visible="true"
       id="path-effect4152"
       effect="skeletal"
       lpeversion="0"
       hide_knot="false" />
    <inkscape:path-effect
       fuse_tolerance="0"
       vertical_pattern="false"
       prop_units="false"
       tang_offset="0"
       normal_offset="0"
       spacing="0"
       scale_y_rel="false"
       prop_scale="-6.6882358e-08"
       copytype="single_stretched"
       pattern="M 0,5 C 0,2.24 2.24,0 5,0 7.76,0 10,2.24 10,5 10,7.76 7.76,10 5,10 2.24,10 0,7.76 0,5 Z"
       is_visible="true"
       id="path-effect4077"
       effect="skeletal"
       lpeversion="0"
       hide_knot="false" />
    <inkscape:path-effect
       fuse_tolerance="0"
       vertical_pattern="false"
       prop_units="false"
       tang_offset="0"
       normal_offset="0"
       spacing="0"
       scale_y_rel="false"
       prop_scale="-0.10833369"
       copytype="single_stretched"
       pattern="M 0,5 C 0,2.24 2.24,0 5,0 7.76,0 10,2.24 10,5 10,7.76 7.76,10 5,10 2.24,10 0,7.76 0,5 Z"
       is_visible="true"
       id="path-effect4057"
       effect="skeletal"
       lpeversion="0"
       hide_knot="false" />
    <inkscape:path-effect
       fuse_tolerance="0"
       vertical_pattern="false"
       prop_units="false"
       tang_offset="0"
       normal_offset="0"
       spacing="0"
       scale_y_rel="false"
       prop_scale="1.05623e-07"
       copytype="single_stretched"
       pattern="M 0,5 C 0,2.24 2.24,0 5,0 7.76,0 10,2.24 10,5 10,7.76 7.76,10 5,10 2.24,10 0,7.76 0,5 Z"
       is_visible="true"
       id="path-effect4049"
       effect="skeletal"
       lpeversion="0"
       hide_knot="false" />
    <inkscape:path-effect
       fuse_tolerance="0"
       vertical_pattern="false"
       prop_units="false"
       tang_offset="0"
       normal_offset="0"
       spacing="0"
       scale_y_rel="false"
       prop_scale="1.05623e-07"
       copytype="single_stretched"
       pattern="M 0,5 C 0,2.24 2.24,0 5,0 7.76,0 10,2.24 10,5 10,7.76 7.76,10 5,10 2.24,10 0,7.76 0,5 Z"
       is_visible="true"
       id="path-effect4029"
       effect="skeletal"
       lpeversion="0"
       hide_knot="false" />
    <inkscape:path-effect
       fuse_tolerance="0"
       vertical_pattern="false"
       prop_units="false"
       tang_offset="0"
       normal_offset="0"
       spacing="0"
       scale_y_rel="false"
       prop_scale="0.16369901"
       copytype="single_stretched"
       pattern="M 0,5 C 0,2.24 2.24,0 5,0 7.76,0 10,2.24 10,5 10,7.76 7.76,10 5,10 2.24,10 0,7.76 0,5 Z"
       is_visible="true"
       id="path-effect4025"
       effect="skeletal"
       lpeversion="0"
       hide_knot="false" />
    <inkscape:path-effect
       fuse_tolerance="0"
       vertical_pattern="false"
       prop_units="false"
       tang_offset="0"
       normal_offset="0"
       spacing="0"
       scale_y_rel="false"
       prop_scale="0.39197629"
       copytype="single_stretched"
       pattern="M 0,5 C 0,2.24 2.24,0 5,0 7.76,0 10,2.24 10,5 10,7.76 7.76,10 5,10 2.24,10 0,7.76 0,5 Z"
       is_visible="true"
       id="path-effect3999"
       effect="skeletal"
       lpeversion="0"
       hide_knot="false" />
    <inkscape:path-effect
       fuse_tolerance="0"
       vertical_pattern="false"
       prop_units="false"
       tang_offset="0"
       normal_offset="0"
       spacing="0"
       scale_y_rel="false"
       prop_scale="0.40438165"
       copytype="single_stretched"
       pattern="M 0,5 C 0,2.24 2.24,0 5,0 7.76,0 10,2.24 10,5 10,7.76 7.76,10 5,10 2.24,10 0,7.76 0,5 Z"
       is_visible="true"
       id="path-effect3995"
       effect="skeletal"
       lpeversion="0"
       hide_knot="false" />
    <inkscape:path-effect
       fuse_tolerance="0"
       vertical_pattern="false"
       prop_units="false"
       tang_offset="0"
       normal_offset="0"
       spacing="0"
       scale_y_rel="false"
       prop_scale="1.05745"
       copytype="single_stretched"
       pattern="M 0,5 C 0,2.24 2.24,0 5,0 7.76,0 10,2.24 10,5 10,7.76 7.76,10 5,10 2.24,10 0,7.76 0,5 Z"
       is_visible="true"
       id="path-effect3883"
       effect="skeletal"
       lpeversion="0"
       hide_knot="false" />
    <inkscape:path-effect
       fuse_tolerance="0"
       vertical_pattern="false"
       prop_units="false"
       tang_offset="0"
       normal_offset="0"
       spacing="0"
       scale_y_rel="false"
       prop_scale="1.05745"
       copytype="single_stretched"
       pattern="M 0,5 C 0,2.24 2.24,0 5,0 7.76,0 10,2.24 10,5 10,7.76 7.76,10 5,10 2.24,10 0,7.76 0,5 Z"
       is_visible="true"
       id="path-effect3844"
       effect="skeletal"
       lpeversion="0"
       hide_knot="false" />
    <inkscape:path-effect
       fuse_tolerance="0"
       vertical_pattern="false"
       prop_units="false"
       tang_offset="0"
       normal_offset="0"
       spacing="0"
       scale_y_rel="false"
       prop_scale="1.057454"
       copytype="single_stretched"
       pattern="M 0,5 C 0,2.24 2.24,0 5,0 7.76,0 10,2.24 10,5 10,7.76 7.76,10 5,10 2.24,10 0,7.76 0,5 Z"
       is_visible="true"
       id="path-effect3818"
       effect="skeletal"
       lpeversion="0"
       hide_knot="false" />
    <inkscape:path-effect
       fuse_tolerance="0"
       vertical_pattern="false"
       prop_units="false"
       tang_offset="0"
       normal_offset="0"
       spacing="0"
       scale_y_rel="false"
       prop_scale="1.04872"
       copytype="single_stretched"
       pattern="M 0,5 C 0,2.24 2.24,0 5,0 7.76,0 10,2.24 10,5 10,7.76 7.76,10 5,10 2.24,10 0,7.76 0,5 Z"
       is_visible="true"
       id="path-effect3812"
       effect="skeletal"
       lpeversion="0"
       hide_knot="false" />
    <inkscape:path-effect
       fuse_tolerance="0"
       vertical_pattern="false"
       prop_units="false"
       tang_offset="0"
       normal_offset="0"
       spacing="0"
       scale_y_rel="false"
       prop_scale="1.0487196"
       copytype="single_stretched"
       pattern="M 0,5 C 0,2.24 2.24,0 5,0 7.76,0 10,2.24 10,5 10,7.76 7.76,10 5,10 2.24,10 0,7.76 0,5 Z"
       is_visible="true"
       id="path-effect3804"
       effect="skeletal"
       lpeversion="0"
       hide_knot="false" />
    <inkscape:path-effect
       fuse_tolerance="0"
       vertical_pattern="false"
       prop_units="false"
       tang_offset="0"
       normal_offset="0"
       spacing="0"
       scale_y_rel="false"
       prop_scale="1.2495155"
       copytype="single_stretched"
       pattern="M 0,5 C 0,2.24 2.24,0 5,0 7.76,0 10,2.24 10,5 10,7.76 7.76,10 5,10 2.24,10 0,7.76 0,5 Z"
       is_visible="true"
       id="path-effect3779"
       effect="skeletal"
       lpeversion="0"
       hide_knot="false" />
    <inkscape:path-effect
       fuse_tolerance="0"
       vertical_pattern="false"
       prop_units="false"
       tang_offset="0"
       normal_offset="0"
       spacing="0"
       scale_y_rel="false"
       prop_scale="1.3751502"
       copytype="single_stretched"
       pattern="M 0,5 C 0,2.24 2.24,0 5,0 7.76,0 10,2.24 10,5 10,7.76 7.76,10 5,10 2.24,10 0,7.76 0,5 Z"
       is_visible="true"
       id="path-effect3773"
       effect="skeletal"
       lpeversion="0"
       hide_knot="false" />
    <inkscape:path-effect
       fuse_tolerance="0"
       vertical_pattern="false"
       prop_units="false"
       tang_offset="0"
       normal_offset="0"
       spacing="0"
       scale_y_rel="false"
       prop_scale="0.48867641"
       copytype="single_stretched"
       pattern="M 0,5 C 0,2.24 2.24,0 5,0 7.76,0 10,2.24 10,5 10,7.76 7.76,10 5,10 2.24,10 0,7.76 0,5 Z"
       is_visible="true"
       id="path-effect3753"
       effect="skeletal"
       lpeversion="0"
       hide_knot="false" />
    <inkscape:path-effect
       fuse_tolerance="0"
       vertical_pattern="false"
       prop_units="false"
       tang_offset="0"
       normal_offset="0"
       spacing="0"
       scale_y_rel="false"
       prop_scale="0.30126808"
       copytype="single_stretched"
       pattern="M 0,5 C 0,2.24 2.24,0 5,0 7.76,0 10,2.24 10,5 10,7.76 7.76,10 5,10 2.24,10 0,7.76 0,5 Z"
       is_visible="true"
       id="path-effect3719"
       effect="skeletal"
       lpeversion="0"
       hide_knot="false" />
    <inkscape:path-effect
       fuse_tolerance="0"
       vertical_pattern="false"
       prop_units="false"
       tang_offset="0"
       normal_offset="0"
       spacing="0"
       scale_y_rel="false"
       prop_scale="1.0416257"
       copytype="single_stretched"
       pattern="M 0,5 C 0,2.24 2.24,0 5,0 7.76,0 10,2.24 10,5 10,7.76 7.76,10 5,10 2.24,10 0,7.76 0,5 Z"
       is_visible="true"
       id="path-effect3715"
       effect="skeletal"
       lpeversion="0"
       hide_knot="false" />
    <inkscape:path-effect
       fuse_tolerance="0"
       vertical_pattern="false"
       prop_units="false"
       tang_offset="0"
       normal_offset="0"
       spacing="0"
       scale_y_rel="false"
       prop_scale="0.30126808"
       copytype="single_stretched"
       pattern="M 0,5 C 0,2.24 2.24,0 5,0 7.76,0 10,2.24 10,5 10,7.76 7.76,10 5,10 2.24,10 0,7.76 0,5 Z"
       is_visible="true"
       id="path-effect3719-2"
       effect="skeletal"
       lpeversion="0"
       hide_knot="false" />
    <inkscape:path-effect
       fuse_tolerance="0"
       vertical_pattern="false"
       prop_units="false"
       tang_offset="0"
       normal_offset="0"
       spacing="0"
       scale_y_rel="false"
       prop_scale="0.40438165"
       copytype="single_stretched"
       pattern="M 0,5 C 0,2.24 2.24,0 5,0 7.76,0 10,2.24 10,5 10,7.76 7.76,10 5,10 2.24,10 0,7.76 0,5 Z"
       is_visible="true"
       id="path-effect3995-3"
       effect="skeletal"
       lpeversion="0"
       hide_knot="false" />
  </defs>
  <sodipodi:namedview
     id="base"
     pagecolor="#ffffff"
     bordercolor="#666666"
     borderopacity="1.0"
     inkscape:pageopacity="0.0"
     inkscape:pageshadow="2"
     inkscape:zoom="2"
     inkscape:cx="247.1901"
     inkscape:cy="119.96049"
     inkscape:document-units="mm"
     inkscape:current-layer="g160"
     showgrid="false"
     inkscape:window-width="1366"
     inkscape:window-height="705"
     inkscape:window-x="-8"
     inkscape:window-y="-8"
     inkscape:window-maximized="1"
     inkscape:document-rotation="0"
     height="90mm" />
  <metadata
     id="metadata5">
    <rdf:RDF>
      <cc:Work
         rdf:about="">
        <dc:format>image/svg+xml</dc:format>
        <dc:type
           rdf:resource="http://purl.org/dc/dcmitype/StillImage" />
        <dc:title></dc:title>
      </cc:Work>
    </rdf:RDF>
  </metadata>
  <g
     inkscape:label="Layer 1"
     inkscape:groupmode="layer"
     id="layer1">
    <g
       id="g160"
       transform="translate(-1.5119048,2.0788691)">
      <g
         id="g63"
         transform="translate(0.13229166,-9.7895833)">
        <g
           aria-label="Elanogy"
           id="text817"
           style="font-style:normal;font-variant:normal;font-weight:normal;font-stretch:normal;font-size:25.4px;line-height:1.25;font-family:'Publica Play';-inkscape-font-specification:'Publica Play';letter-spacing:0px;word-spacing:0px;fill:#000000;fill-opacity:1;stroke:none;stroke-width:0.264583"
           transform="translate(-12.828937,-78.042702)">
          <g
             id="g144">
            <path
               d="m 40.780909,100.45843 v -2.463803 h -12.0904 v 17.576803 h 12.0904 v -2.4638 h -9.3218 v -5.2324 h 8.5598 v -2.3622 h -8.5598 v -5.0546 z"
               style="font-size:25.4px;fill:#ee6c4d;fill-opacity:1"
               id="path122" />
            <path
               d="m 43.549492,97.994627 v 17.576803 h 2.5908 V 97.994627 Z"
               style="font-size:25.4px;fill:#ee6c4d;fill-opacity:1"
               id="path124" />
            <path
               d="m 55.233459,102.84603 c -3.8608,0 -6.6294,2.7178 -6.6294,6.477 0,3.7592 2.5654,6.477 6.0706,6.477 1.905,0 3.5814,-0.762 4.5974,-1.9558 v 1.7272 h 2.5908 v -6.2484 c 0,-3.7592 -2.7686,-6.477 -6.6294,-6.477 z m 0.0254,10.6934 c -2.3114,0 -3.9878,-1.7526 -3.9878,-4.2164 0,-2.4384 1.6764,-4.2164 3.9878,-4.2164 2.3368,0 4.0132,1.778 4.0132,4.2164 0,2.4638 -1.6764,4.2164 -4.0132,4.2164 z"
               style="font-size:25.4px;fill:#ee6c4d;fill-opacity:1"
               id="path126" />
            <path
               d="m 64.453654,115.57143 h 2.6162 v -7.3152 c 0,-1.9558 1.2192,-3.2512 3.0988,-3.2512 1.8796,0 3.098799,1.2954 3.098799,3.2512 v 7.3152 h 2.6162 v -7.3152 c 0,-3.2258 -2.3368,-5.4102 -5.740399,-5.4102 -3.3782,0 -5.6896,2.1844 -5.6896,5.4102 z"
               style="font-size:25.4px;fill:#ee6c4d;fill-opacity:1"
               id="path128" />
            <path
               d="m 84.875234,102.84603 c -3.8608,0 -6.6802,2.7178 -6.6802,6.477 0,3.7592 2.8194,6.477 6.6802,6.477 3.8608,0 6.6548,-2.7178 6.6548,-6.477 0,-3.7592 -2.794,-6.477 -6.6548,-6.477 z m -0.0254,2.2606 c 2.3368,0 4.0132,1.778 4.0132,4.2164 0,2.4638 -1.6764,4.2164 -4.0132,4.2164 -2.3114,0 -3.9878,-1.7526 -3.9878,-4.2164 0,-2.4384 1.6764,-4.2164 3.9878,-4.2164 z"
               style="font-size:25.4px;fill:#293241;fill-opacity:1"
               id="path130" />
            <path
               d="m 99.886598,102.84603 c -3.860799,0 -6.629399,2.6162 -6.629399,6.223 0,3.5814 2.5654,6.1976 6.172199,6.1976 1.854202,0 3.454402,-0.762 4.495802,-1.9558 v 1.6002 c 0,2.2352 -1.6256,3.8862 -3.8608,3.8862 -1.828802,0 -3.403602,-1.2446 -3.708402,-2.921 l -2.412999,-0.0254 c 0.381,2.921 2.997199,5.0292 6.223001,5.0292 3.683,0 6.35,-2.5654 6.35,-6.1214 v -5.6896 c 0,-3.6068 -2.7686,-6.223 -6.629402,-6.223 z m 0.0254,10.3886 c -2.3114,0 -3.987799,-1.7526 -3.987799,-4.191 0,-2.413 1.676399,-4.1656 3.987799,-4.1656 2.336802,0 4.013202,1.7526 4.013202,4.1656 0,2.4384 -1.6764,4.191 -4.013202,4.191 z"
               style="font-size:25.4px;fill:#293241;fill-opacity:1"
               id="path132" />
            <path
               d="m 118.04756,103.07463 v 6.7818 c 0,2.0066 -1.2446,3.3274 -3.175,3.3274 -1.8796,0 -3.0988,-1.3208 -3.0988,-3.3274 v -6.7818 h -2.5908 v 7.1374 c 0,3.0226 2.0828,5.0546 4.9022,5.0546 1.7526,0 3.1496,-0.762 3.9624,-2.0828 v 2.3368 c 0,2.0066 -1.2192,3.2766 -3.0988,3.2766 -1.7272,0 -2.8956,-1.143 -3.048,-2.921 l -2.413,-0.0254 c 0.254,2.9972 2.4384,5.0292 5.5626,5.0292 3.3528,0 5.6134,-2.2098 5.6134,-5.5118 v -12.2936 z"
               style="font-size:25.4px;fill:#293241;fill-opacity:1"
               id="path134" />
          </g>
        </g>
        <g
           id="layer1-7"
           inkscape:label="Layer 1"
           transform="translate(16.987786,-39.148332)">
          <path
             sodipodi:nodetypes="cccsccccccccccccccccccccccccccccccccccccccccccscccccccccc"
             inkscape:connector-curvature="0"
             id="path3771"
             d="m 99.527117,49.617289 c -0.372265,0.0051 -0.740842,0.02629 -1.103979,0.06308 -3.180576,0.323329 -5.673247,1.864442 -7.212933,3.661944 -1.921641,2.388171 -2.245948,4.832942 -2.179163,6.245513 0.07102,1.502288 0.542853,2.263536 0.944966,2.293184 -0.214246,-1.071442 -0.182764,-2.472146 0.27938,-4.095771 0.193887,-0.787177 0.544215,-1.669451 1.13549,-2.565114 0.44396,-0.672508 0.993353,-1.305369 1.640098,-1.870804 0.572317,-0.526419 1.411978,-0.96116 2.426301,-1.226721 1.066553,-0.238857 2.092189,-0.0752 2.963157,0.343183 1.386693,0.935111 1.931446,1.925326 2.105066,2.702012 0.47584,-0.164057 1.14774,-0.216372 2.00367,-0.04789 0.5088,0.07862 1.19202,0.322323 1.96304,0.987965 0.51367,0.440856 0.93642,1.189121 1.08084,2.30907 0.006,0.947675 -0.17807,1.756742 -0.51372,2.312107 -0.0358,0.121784 -0.0807,0.236643 -0.13685,0.341547 -0.16471,0.485456 -0.58198,1.020071 -1.08011,1.592566 -1.27931,1.444665 -3.20932,2.72847 -5.02318,4.305327 -1.055718,0.902818 -2.040114,1.862296 -2.916878,2.930957 -0.990769,1.203814 -1.733667,2.503888 -2.216578,3.831552 -0.620184,1.753486 -0.70439,3.400647 -0.543991,4.746393 0.464083,3.734329 2.240747,5.194951 2.708388,5.058741 0.01866,-0.0055 0.03637,-0.01299 0.05369,-0.02126 -0.302575,-0.08419 -1.299341,-1.381112 -1.129337,-4.136188 0.07422,-1.112041 0.38028,-2.416069 1.071736,-3.764503 0.333041,-0.636428 0.722283,-1.248801 1.163799,-1.844873 -0.428399,1.57842 -0.484777,3.057864 -0.365783,4.275422 0.358761,3.520527 1.732253,4.897707 2.093756,4.76929 0.01441,-0.0051 0.02805,-0.01228 0.04137,-0.02009 -0.233906,-0.07936 -1.004265,-1.301958 -0.872846,-3.8993 0.0574,-1.048372 0.293771,-2.277875 0.82829,-3.549108 0.43,-1.002106 0.979217,-1.942069 1.640584,-2.850126 -0.0647,0.245065 -0.12455,0.492027 -0.17697,0.740799 -0.305731,1.492211 -0.347378,2.909201 -0.268308,4.073813 0.228768,3.232268 1.104838,4.54513 1.335368,4.441991 0.009,-0.0041 0.0178,-0.01021 0.0264,-0.01682 -0.14915,-0.08177 -0.6406,-1.229567 -0.55679,-3.598636 0.0366,-0.956058 0.18762,-2.070552 0.52848,-3.211531 0.54599,-1.790279 1.39244,-3.337012 2.50753,-4.859464 0.89837,-1.255411 1.90713,-2.42785 2.78642,-3.795574 1.74771,-2.53229 2.87387,-4.291173 3.04733,-7.284176 0.0227,-1.541561 -0.29528,-3.370634 -1.17683,-4.852221 -0.24579,-0.413055 -0.52721,-0.784708 -0.84406,-1.10968 -1.03808,-1.124864 -2.31999,-1.935881 -3.56081,-2.441764 -1.39743,-0.598439 -2.93451,-0.808419 -4.050895,-0.962502 -0.02381,-4.79e-4 -0.04781,-0.0017 -0.07162,-0.0022 -0.124847,-0.0019 -0.249318,-0.0019 -0.373395,-2.39e-4 z m 1.986923,31.134592 c -0.0226,0.215402 -0.0423,0.402213 -0.0626,0.551803 0.0251,-0.151109 0.0449,-0.335941 0.0626,-0.551803 z m -2.385933,0.951287 c -0.03544,0.237172 -0.06657,0.442859 -0.09821,0.607872 0.03937,-0.167006 0.0705,-0.370532 0.09821,-0.607872 z m -2.77312,0.654829 c -0.0459,0.251581 -0.08631,0.469736 -0.127265,0.644782 0.05093,-0.177156 0.09144,-0.393032 0.127265,-0.644782 z"
             style="fill:#ee6c4d;fill-opacity:1;stroke:none;stroke-width:0.122778px;stroke-linecap:butt;stroke-linejoin:miter;stroke-opacity:1" />
          <path
             id="path4133"
             d="m 96.158752,55.064818 a 1.2751597,1.9617845 35.9 0 0 -1.589486,1.007436 1.2751597,1.9617845 35.9 0 0 -0.11757,2.336882 1.2751597,1.9617845 35.9 0 0 1.979259,-0.591315 0.85590058,1.0393079 0 0 1 -0.351259,-0.837743 0.85590058,1.0393079 0 0 1 0.855991,-1.039292 0.85590058,1.0393079 0 0 1 0.20241,0.03069 1.2751597,1.9617845 35.9 0 0 -0.385716,-0.740447 1.2751597,1.9617845 35.9 0 0 -0.593629,-0.166217 z"
             style="opacity:1;fill:#293241;fill-opacity:1;stroke-width:1.1042"
             inkscape:connector-curvature="0" />
          <path
             id="path4133-9"
             d="m 101.59035,58.411743 a 1.2751597,1.9617845 37.1 0 0 -1.610346,0.974135 1.2751597,1.9617845 37.1 0 0 -0.166218,2.333986 1.2751597,1.9617845 37.1 0 0 2.108984,-0.682821 1.00874,1.0698757 0 0 1 -0.58552,-0.969791 1.00874,1.0698757 0 0 1 1.00888,-1.069696 1.00874,1.0698757 0 0 1 0.13466,0.01072 1.2751597,1.9617845 37.1 0 0 -0.30029,-0.417859 1.2751597,1.9617845 37.1 0 0 -0.59015,-0.178669 z"
             style="opacity:1;fill:#293241;fill-opacity:1;stroke-width:1.1042"
             inkscape:connector-curvature="0" />
          <path
             inkscape:connector-curvature="0"
             id="path4576"
             d="m 96.614189,60.14203 c -0.2174,0.255842 -0.539704,0.518648 -0.997702,0.711603 -0.04763,0.02006 -0.09396,0.03674 -0.140551,0.05369 0.195591,0.203885 0.39731,0.470724 0.574935,0.795254 0.02303,0.04204 0.04029,0.08269 0.06142,0.124347 0.0404,-0.04603 0.08039,-0.09218 0.129484,-0.13791 0.09577,-0.07901 0.200818,-0.147974 0.313199,-0.205738 0.237314,-0.121979 0.452943,-0.17706 0.64466,-0.192739 -0.0533,-0.05879 -0.106334,-0.11924 -0.158813,-0.184824 -0.01748,-0.02186 -0.03513,-0.04386 -0.052,-0.06613 -0.248483,-0.333453 -0.350677,-0.638408 -0.37462,-0.897558 z"
             style="opacity:1;fill:#293241;fill-opacity:1;stroke-width:2.2907" />
        </g>
      </g>
    </g>
  </g>
</svg>
